<svg width="206" height="40" viewBox="0 0 206 40" fill="none" xmlns="http://www.w3.org/2000/svg">
<path fill-rule="evenodd" clip-rule="evenodd" d="M43.9299 30.0327C43.5304 28.8358 44.2378 27.4906 45.5086 27.0307C46.7795 26.5707 48.1357 27.1691 48.5352 28.366C48.9347 29.563 48.2273 30.9082 46.9565 31.3681C45.6856 31.828 44.3294 31.2297 43.9299 30.0327ZM4.5312 15.366C4.5312 15.0342 4.36532 14.8683 4.03353 14.8683H0.748853C0.417067 14.8683 0.251162 15.0342 0.251162 15.366V30.9599C0.251162 31.2917 0.417067 31.4576 0.748853 31.4576H4.03353C4.36532 31.4575 4.5312 31.2917 4.5312 30.9599V15.366ZM22.4144 20.575C22.4144 17.1908 21.1536 14.7356 17.5372 14.7356H17.3381C14.8829 14.7356 13.6221 15.9964 13.1244 16.8258V15.366C13.1244 15.0342 12.9585 14.8683 12.6268 14.8683H9.34208C9.01029 14.8683 8.84441 15.0342 8.84441 15.366V30.9599C8.84441 31.2917 9.01029 31.4576 9.34208 31.4576H12.6268C12.9585 31.4575 13.1244 31.2917 13.1244 30.9599V19.7455C13.4894 19.1483 14.5179 18.5511 15.9446 18.5511H16.3427C17.3049 18.5511 18.1344 18.9493 18.1344 20.0773V30.9599C18.1344 31.2917 18.3003 31.4576 18.6321 31.4576H21.9167C22.2485 31.4575 22.4144 31.2917 22.4144 30.9599V20.575ZM30.6759 8.73027C30.6759 8.39851 30.51 8.2326 30.1782 8.2326H26.8935C26.5617 8.2326 26.3958 8.39851 26.3958 8.73027V30.9599C26.3958 31.2917 26.5617 31.4576 26.8935 31.4576H30.1782C30.51 31.4575 30.6759 31.2917 30.6759 30.9599V25.4522L31.9698 24.1583L36.0176 30.8604C36.283 31.3248 36.6812 31.4576 37.1125 31.4576H40.2313C40.7953 31.4575 40.8285 30.9267 40.6294 30.5617L34.8564 21.3049L39.7999 15.9964C40.3971 15.366 39.999 14.8683 39.5677 14.8683H36.1503C35.8849 14.8683 35.5863 15.0342 35.3872 15.2664L30.6759 20.2432V8.73027ZM0.0747818 11.8255C-0.247534 10.6541 0.501966 9.39746 1.74743 9.02089C2.99291 8.64432 4.26577 9.28953 4.58809 10.4608C4.9104 11.6321 4.16093 12.8888 2.91545 13.2654C1.66996 13.642 0.397123 12.9967 0.0747818 11.8255ZM44.3756 23.163L45.0986 23.1684C45.0351 22.7133 45.1039 22.2012 45.3242 21.6983C45.6358 20.987 46.1834 20.4476 46.7848 20.1837C46.189 19.5795 45.8678 18.6657 45.9969 17.7011C46.1155 16.8151 46.5887 16.0754 47.2326 15.6374C46.3683 14.9642 45.8217 13.7744 45.8861 12.4609C45.9663 10.8256 46.9684 9.51413 48.2554 9.2006L48.2575 8.73036C48.2575 8.3986 48.0916 8.2327 47.7598 8.2327H44.3756C44.0438 8.2327 43.8779 8.3986 43.8779 8.73036V22.6653C43.8779 22.9971 44.0438 23.163 44.3756 23.163ZM46.1444 22.0396C45.8977 22.6027 46.0864 23.1973 46.5655 23.3666C47.0446 23.5358 47.6339 23.2161 47.8806 22.653C48.1273 22.0899 47.9386 21.4953 47.4595 21.326C46.9804 21.1568 46.3911 21.4765 46.1444 22.0396ZM47.0379 17.9171C46.8732 18.7889 47.3329 19.6073 48.0638 19.7436C48.7948 19.8799 49.5219 19.2828 49.6866 18.411C49.8514 17.5392 49.3917 16.7208 48.6607 16.5845C47.9298 16.4482 47.2026 17.0453 47.0379 17.9171ZM46.8542 12.779C46.7958 13.9718 47.5621 14.9978 48.5644 15.0687C49.5668 15.1396 50.428 14.2287 50.4865 13.0358C50.545 11.8429 49.7787 10.817 48.7764 10.7461C47.774 10.6752 46.9127 11.5861 46.8542 12.779ZM91.7882 29.6999C91.3016 30.3265 90.7228 30.8191 90.0518 31.1776C89.3157 31.5708 88.4535 31.7675 87.4654 31.7675C86.4671 31.7675 85.5697 31.5607 84.7731 31.1473C83.9866 30.7339 83.316 30.1541 82.7614 29.4079C82.2169 28.6618 81.7985 27.7845 81.5061 26.7762C81.2237 25.7678 81.0826 24.6687 81.0826 23.4789V23.1612C81.0826 21.9109 81.2237 20.7765 81.5061 19.7581C81.7985 18.7296 82.222 17.8473 82.7766 17.1112C83.3311 16.3751 84.0017 15.8054 84.7882 15.402C85.5848 14.9987 86.4873 14.797 87.4956 14.797C88.4737 14.797 89.3257 14.9936 90.0518 15.3869C90.6358 15.699 91.1501 16.1158 91.5945 16.6373V8.54142C91.5945 8.37092 91.7327 8.2327 91.9032 8.2327H95.3091C95.4796 8.2327 95.6178 8.37092 95.6178 8.54142V31.1562C95.6178 31.3267 95.4796 31.465 95.3091 31.465H92.2635C92.1065 31.465 91.9744 31.347 91.9568 31.1909L91.7882 29.6999ZM91.5945 19.8858C91.4668 19.623 91.3156 19.3838 91.1408 19.1682C90.8483 18.7951 90.4853 18.5027 90.0518 18.2909C89.6182 18.0792 89.1039 17.9733 88.509 17.9733C87.8939 17.9733 87.3696 18.1094 86.936 18.3817C86.5024 18.6439 86.1495 19.0119 85.8772 19.4858C85.605 19.9597 85.4033 20.5093 85.2722 21.1345C85.1512 21.7596 85.0907 22.4352 85.0907 23.1612V23.4789C85.0907 24.1847 85.1512 24.8452 85.2722 25.4603C85.3932 26.0753 85.5898 26.6199 85.8621 27.0938C86.1343 27.5576 86.4822 27.9206 86.9057 28.1828C87.3393 28.445 87.8636 28.576 88.4787 28.576C89.2652 28.576 89.9106 28.4046 90.4147 28.0618C90.9199 27.7151 91.3131 27.2468 91.5945 26.6569V19.8858ZM59.4827 31.1562V20.4802C59.6362 20.1258 59.8379 19.8196 60.0877 19.5614C60.4002 19.2489 60.7885 19.0119 61.2523 18.8506C61.7161 18.6791 62.2556 18.5934 62.8707 18.5934C63.1127 18.5934 63.3698 18.6035 63.6421 18.6237C63.7816 18.6337 63.9137 18.6461 64.0385 18.661C64.2277 18.6836 64.4011 18.5412 64.4042 18.3506L64.4554 15.2063C64.4575 15.0783 64.3804 14.9608 64.2562 14.9297C64.1376 14.9 63.9985 14.876 63.8387 14.8575C63.5866 14.8172 63.3496 14.797 63.1278 14.797C62.3312 14.797 61.6254 14.9836 61.0103 15.3566C60.4053 15.7197 59.9011 16.2339 59.4978 16.8994C59.4631 16.9566 59.4292 17.0146 59.3959 17.0734L59.2892 15.3887C59.2789 15.2261 59.144 15.0995 58.9811 15.0995H55.7983C55.6278 15.0995 55.4896 15.2377 55.4896 15.4082V31.1562C55.4896 31.3267 55.6278 31.465 55.7983 31.465H59.1739C59.3444 31.465 59.4827 31.3267 59.4827 31.1562ZM73.0807 31.7675C71.8405 31.7675 70.7263 31.5658 69.7381 31.1624C68.7499 30.7591 67.908 30.1995 67.2122 29.4836C66.5265 28.7575 65.9971 27.9156 65.6241 26.9577C65.2611 25.9896 65.0796 24.951 65.0796 23.8419V23.2369C65.0796 21.9764 65.2611 20.832 65.6241 19.8034C65.9871 18.7649 66.5013 17.8725 67.1668 17.1263C67.8323 16.3801 68.6289 15.8054 69.5566 15.402C70.4843 14.9987 71.5077 14.797 72.627 14.797C73.7866 14.797 74.8101 14.9936 75.6974 15.3869C76.5847 15.7701 77.3259 16.3146 77.9208 17.0204C78.5157 17.7263 78.9644 18.5733 79.2669 19.5614C79.5694 20.5395 79.7207 21.6235 79.7207 22.8134V24.1835C79.7207 24.354 79.5825 24.4923 79.412 24.4923H69.1314C69.1711 24.9338 69.2524 25.3522 69.3751 25.7476C69.5667 26.3325 69.844 26.8417 70.207 27.2753C70.5801 27.6988 71.0237 28.0315 71.538 28.2735C72.0623 28.5055 72.6572 28.6214 73.3228 28.6214C74.1597 28.6214 74.9159 28.4601 75.5915 28.1374C76.1768 27.8534 76.696 27.4555 77.149 26.9436C77.2735 26.8031 77.4927 26.7911 77.623 26.9263L79.214 28.577C79.3153 28.6822 79.3298 28.8446 79.242 28.9613C78.9172 29.3925 78.502 29.8086 77.9964 30.2096C77.4217 30.6734 76.7259 31.0515 75.9091 31.344C75.0924 31.6263 74.1496 31.7675 73.0807 31.7675ZM69.3146 21.0891C69.2688 21.2985 69.2304 21.5152 69.1995 21.7395H75.4856C75.6527 21.7395 75.7881 21.604 75.7881 21.437C75.768 20.8017 75.647 20.2219 75.4251 19.6976C75.2033 19.1631 74.8605 18.7396 74.3966 18.4271C73.9328 18.1044 73.3328 17.9431 72.5967 17.9431C72.0018 17.9431 71.4825 18.0741 71.0389 18.3363C70.6053 18.5884 70.2423 18.9514 69.9498 19.4253C69.6675 19.8892 69.4558 20.4437 69.3146 21.0891ZM102.539 15.0995C102.71 15.0995 102.848 15.2377 102.848 15.4082V31.1562C102.848 31.3267 102.71 31.465 102.539 31.465H99.1488C98.9783 31.465 98.84 31.3267 98.84 31.1562V15.4082C98.84 15.2377 98.9783 15.0995 99.1488 15.0995H102.539ZM98.5678 10.8191C98.5678 10.2242 98.7695 9.73009 99.1728 9.33683C99.5862 8.94358 100.141 8.74695 100.837 8.74695C101.532 8.74695 102.082 8.94358 102.485 9.33683C102.899 9.73009 103.105 10.2242 103.105 10.8191C103.105 11.4039 102.899 11.893 102.485 12.2862C102.082 12.6795 101.532 12.8761 100.837 12.8761C100.141 12.8761 99.5862 12.6795 99.1728 12.2862C98.7695 11.893 98.5678 11.4039 98.5678 10.8191ZM106.334 8.2327C106.163 8.2327 106.025 8.37092 106.025 8.54142V31.1562C106.025 31.3267 106.163 31.465 106.334 31.465H109.363C109.521 31.465 109.653 31.3463 109.67 31.1896L109.833 29.6942C110.312 30.3236 110.888 30.818 111.561 31.1776C112.307 31.5708 113.184 31.7675 114.193 31.7675C115.251 31.7675 116.174 31.5658 116.961 31.1624C117.757 30.749 118.423 30.1743 118.957 29.4382C119.491 28.692 119.89 27.8097 120.152 26.7913C120.424 25.7729 120.56 24.6536 120.56 23.4335V23.1159C120.56 21.8958 120.424 20.7815 120.152 19.7732C119.89 18.7548 119.491 17.8775 118.957 17.1414C118.433 16.3952 117.767 15.8205 116.961 15.4172C116.164 15.0037 115.231 14.797 114.162 14.797C113.164 14.797 112.297 14.9936 111.561 15.3869C110.979 15.6976 110.47 16.1122 110.033 16.6307V8.54142C110.033 8.37092 109.895 8.2327 109.725 8.2327H106.334ZM110.033 26.6145V19.9342C110.161 19.6539 110.313 19.3985 110.487 19.1682C110.779 18.7951 111.142 18.5027 111.576 18.2909C112.02 18.0792 112.554 17.9733 113.179 17.9733C113.835 17.9733 114.379 18.1094 114.813 18.3817C115.246 18.6539 115.589 19.027 115.841 19.5009C116.093 19.9749 116.275 20.5244 116.386 21.1496C116.497 21.7647 116.552 22.4201 116.552 23.1159V23.4335C116.552 24.1696 116.497 24.8502 116.386 25.4754C116.285 26.1006 116.109 26.6501 115.856 27.124C115.604 27.5879 115.262 27.9509 114.828 28.213C114.394 28.4651 113.855 28.5912 113.21 28.5912C112.383 28.5912 111.707 28.4097 111.183 28.0467C110.678 27.6906 110.295 27.2132 110.033 26.6145ZM126.771 8.2327C126.942 8.2327 127.08 8.37092 127.08 8.54142V31.1562C127.08 31.3267 126.942 31.465 126.771 31.465H123.38C123.21 31.465 123.072 31.3267 123.072 31.1562V8.54142C123.072 8.37092 123.21 8.2327 123.38 8.2327H126.771ZM134.28 31.1624C135.268 31.5658 136.382 31.7675 137.623 31.7675C138.692 31.7675 139.634 31.6263 140.451 31.344C141.268 31.0515 141.964 30.6734 142.538 30.2096C143.044 29.8086 143.459 29.3925 143.784 28.9613C143.872 28.8446 143.857 28.6822 143.756 28.577L142.165 26.9263C142.035 26.7911 141.815 26.8031 141.691 26.9436C141.238 27.4555 140.719 27.8534 140.133 28.1374C139.458 28.4601 138.702 28.6214 137.865 28.6214C137.199 28.6214 136.604 28.5055 136.08 28.2735C135.566 28.0315 135.122 27.6988 134.749 27.2753C134.386 26.8417 134.109 26.3325 133.917 25.7476C133.794 25.3522 133.713 24.9338 133.673 24.4923H143.954C144.124 24.4923 144.263 24.354 144.263 24.1835V22.8134C144.263 21.6235 144.111 20.5395 143.809 19.5614C143.506 18.5733 143.058 17.7263 142.463 17.0204C141.868 16.3146 141.127 15.7701 140.239 15.3869C139.352 14.9936 138.329 14.797 137.169 14.797C136.05 14.797 135.026 14.9987 134.099 15.402C133.171 15.8054 132.374 16.3801 131.709 17.1263C131.043 17.8725 130.529 18.7649 130.166 19.8034C129.803 20.832 129.622 21.9764 129.622 23.2369V23.8419C129.622 24.951 129.803 25.9896 130.166 26.9577C130.539 27.9156 131.068 28.7575 131.754 29.4836C132.45 30.1995 133.292 30.7591 134.28 31.1624ZM133.741 21.7395C133.772 21.5152 133.811 21.2985 133.857 21.0891C133.998 20.4437 134.209 19.8892 134.492 19.4253C134.784 18.9514 135.147 18.5884 135.581 18.3363C136.024 18.0741 136.544 17.9431 137.139 17.9431C137.875 17.9431 138.475 18.1044 138.939 18.4271C139.402 18.7396 139.745 19.1631 139.967 19.6976C140.189 20.2219 140.31 20.8017 140.33 21.437C140.33 21.604 140.195 21.7395 140.028 21.7395H133.741Z" fill="url(#paint0_linear_103_910)"/>
<path d="M167.461 8.2326C167.631 8.2326 167.77 8.37082 167.77 8.54133V30.774C167.77 30.9445 167.631 31.0828 167.461 31.0828H163.611C163.504 31.0828 163.404 31.0269 163.348 30.9354L154.296 16.1653C154.133 15.8996 153.724 16.015 153.724 16.3266V30.774C153.724 30.9445 153.586 31.0828 153.415 31.0828H149.717C149.546 31.0828 149.408 30.9445 149.408 30.774V8.54133C149.408 8.37083 149.546 8.2326 149.717 8.2326H153.551C153.658 8.2326 153.758 8.28832 153.814 8.37975L162.898 23.1681C163.061 23.4335 163.47 23.318 163.47 23.0066V8.54133C163.47 8.37082 163.608 8.2326 163.778 8.2326H167.461Z" fill="white"/>
<path d="M175.528 8.2326C175.699 8.2326 175.837 8.37082 175.837 8.54133V30.774C175.837 30.9445 175.699 31.0828 175.528 31.0828H171.83C171.659 31.0828 171.521 30.9445 171.521 30.774V8.54133C171.521 8.37083 171.659 8.2326 171.83 8.2326H175.528ZM184.74 18.104C184.911 18.104 185.049 18.2422 185.049 18.4127V21.2008C185.049 21.3713 184.911 21.5095 184.74 21.5095H175.016C174.845 21.5095 174.707 21.3713 174.707 21.2008V18.4127C174.707 18.2422 174.845 18.104 175.016 18.104H184.74ZM185.949 8.2326C186.119 8.2326 186.258 8.37082 186.258 8.54133V11.3294C186.258 11.4999 186.119 11.6382 185.949 11.6382H175.016C174.845 11.6382 174.707 11.4999 174.707 11.3294V8.54133C174.707 8.37083 174.845 8.2326 175.016 8.2326H185.949Z" fill="white"/>
<path d="M198.363 8.2326C198.534 8.2326 198.672 8.37082 198.672 8.54133V30.774C198.672 30.9445 198.534 31.0828 198.363 31.0828H194.681C194.51 31.0828 194.372 30.9445 194.372 30.774V8.54133C194.372 8.37083 194.51 8.2326 194.681 8.2326H198.363ZM205.457 8.2326C205.627 8.2326 205.765 8.37082 205.765 8.54133V11.3294C205.765 11.4999 205.627 11.6382 205.457 11.6382H187.665C187.495 11.6382 187.357 11.4999 187.357 11.3294V8.54133C187.357 8.37083 187.495 8.2326 187.665 8.2326H205.457Z" fill="white"/>
<defs>
<linearGradient id="paint0_linear_103_910" x1="-84" y1="31.7675" x2="94.7151" y2="237.113" gradientUnits="userSpaceOnUse">
<stop offset="0.137756" stop-color="#E6007A"/>
<stop offset="0.231884" stop-color="#703AC2"/>
<stop offset="0.373706" stop-color="#0070EB"/>
<stop offset="0.537267" stop-color="#0297FB"/>
<stop offset="0.776765" stop-color="#0AE2FF"/>
</linearGradient>
</defs>
</svg>
