<svg width="176" height="21" viewBox="0 0 176 21" fill="none" xmlns="http://www.w3.org/2000/svg">
<path fill-rule="evenodd" clip-rule="evenodd" d="M38.6923 15.9824C37.6118 16.3735 37.0104 17.5172 37.3501 18.5348C37.6898 19.5525 38.8428 20.0612 39.9233 19.6702C41.0038 19.2792 41.6052 18.1355 41.2656 17.1178C40.9259 16.1001 39.7728 15.5914 38.6923 15.9824ZM3.42939 5.64178C3.71148 5.6418 3.85251 5.78284 3.85251 6.06493V19.3231C3.85251 19.6052 3.71148 19.7463 3.42939 19.7463H0.636689C0.354599 19.7463 0.213542 19.6052 0.213542 19.3231V6.06493C0.213542 5.78284 0.354599 5.6418 0.636689 5.64178H3.42939ZM14.9105 5.52896C17.9852 5.52896 19.0572 7.61642 19.0572 10.4937V19.3231C19.0572 19.6052 18.9161 19.7463 18.634 19.7463H15.8413C15.5592 19.7463 15.4182 19.6052 15.4182 19.3231V10.0706C15.4182 9.1115 14.713 8.77299 13.8949 8.77299H13.5564C12.3434 8.77299 11.4689 9.28075 11.1586 9.7885V19.3231C11.1586 19.6052 11.0176 19.7463 10.7355 19.7463H7.94282C7.66073 19.7463 7.51969 19.6052 7.51969 19.3231V6.06493C7.51969 5.78284 7.66073 5.6418 7.94282 5.64178H10.7355C11.0176 5.6418 11.1586 5.78284 11.1586 6.06493V7.30611C11.5818 6.6009 12.6537 5.52896 14.7412 5.52896H14.9105ZM25.6581 1.62851e-07C25.9402 1.62851e-07 26.0812 0.141056 26.0812 0.423125V10.2117L30.0869 5.9803C30.2561 5.78284 30.51 5.6418 30.7357 5.64178H33.6412C34.008 5.6418 34.3464 6.06493 33.8387 6.6009L29.6356 11.1143L34.5439 18.9846C34.7132 19.2949 34.685 19.7463 34.2054 19.7463H31.5538C31.187 19.7463 30.8485 19.6334 30.6229 19.2385L27.1814 13.5403L26.0812 14.6404V19.3231C26.0812 19.6052 25.9402 19.7463 25.6581 19.7463H22.8654C22.5833 19.7463 22.4423 19.6052 22.4423 19.3231V0.423125C22.4423 0.141056 22.5833 1.62851e-07 22.8654 1.62851e-07H25.6581ZM1.4857 0.670213C0.426782 0.990381 -0.210459 2.05884 0.063581 3.05471C0.337642 4.05055 1.41983 4.59915 2.47877 4.27896C3.5377 3.95879 4.17492 2.89033 3.90088 1.89448C3.62684 0.898614 2.54463 0.350045 1.4857 0.670213Z" fill="url(#paint0_linear_2032_21366)"/>
<path fill-rule="evenodd" clip-rule="evenodd" d="M38.3437 12.6986L37.729 12.694C37.4469 12.694 37.3059 12.553 37.3059 12.2709V0.423125C37.3059 0.141056 37.4469 0 37.729 0H40.6063C40.8884 0 41.0294 0.141056 41.0294 0.423125L41.0277 0.822929C39.9335 1.08949 39.0814 2.20455 39.0132 3.59493C38.9585 4.71163 39.4233 5.72321 40.1581 6.29559C39.6106 6.668 39.2083 7.29691 39.1075 8.05018C38.9977 8.87031 39.2708 9.64723 39.7773 10.1609C39.2661 10.3853 38.8005 10.844 38.5355 11.4487C38.3482 11.8762 38.2897 12.3117 38.3437 12.6986Z" fill="url(#paint1_linear_2032_21366)"/>
<path fill-rule="evenodd" clip-rule="evenodd" d="M39.2329 11.739C39.0232 12.2177 39.1836 12.7232 39.591 12.8671C39.9983 13.011 40.4993 12.7392 40.7091 12.2604C40.9188 11.7817 40.7584 11.2762 40.351 11.1323C39.9437 10.9883 39.4426 11.2602 39.2329 11.739ZM39.9926 8.23394C39.8525 8.97514 40.2434 9.67098 40.8648 9.78685C41.4863 9.90273 42.1046 9.39504 42.2446 8.65384C42.3846 7.91264 41.9938 7.2168 41.3723 7.10092C40.7509 6.98507 40.1326 7.49274 39.9926 8.23394ZM39.8364 3.86539C39.7867 4.87959 40.4382 5.75189 41.2904 5.81216C42.1427 5.8724 42.8749 5.09795 42.9246 4.08376C42.9744 3.06957 42.3229 2.19726 41.4706 2.137C40.6184 2.07675 39.8862 2.85122 39.8364 3.86539Z" fill="url(#paint2_linear_2032_21366)"/>
<path d="M49.7122 8.72979V19.802H46.3173V5.8878H49.5322L49.7122 8.72979ZM53.9431 5.79778L53.8916 8.96127C53.703 8.92697 53.4887 8.90126 53.2487 8.88411C53.0172 8.86696 52.7986 8.85839 52.5928 8.85839C52.0698 8.85839 51.6112 8.93126 51.2168 9.077C50.8225 9.21417 50.4924 9.41564 50.2266 9.68141C49.9694 9.94718 49.7722 10.273 49.6351 10.6587C49.4979 11.036 49.4208 11.4646 49.4036 11.9447L48.6706 11.8547C48.6706 10.9717 48.7606 10.1529 48.9407 9.3985C49.1207 8.64406 49.3822 7.98393 49.7251 7.4181C50.068 6.85228 50.4967 6.41505 51.0111 6.10642C51.534 5.78921 52.1341 5.63061 52.8114 5.63061C53 5.63061 53.2015 5.64775 53.4158 5.68205C53.6387 5.70777 53.8145 5.74635 53.9431 5.79778Z" fill="url(#paint3_linear_2032_21366)"/>
<path d="M61.2736 20.0592C60.2191 20.0592 59.2718 19.8877 58.4316 19.5448C57.5915 19.2019 56.8756 18.7261 56.284 18.1174C55.7011 17.5001 55.251 16.7842 54.9338 15.9698C54.6252 15.1468 54.4708 14.2637 54.4708 13.3207V12.8063C54.4708 11.7347 54.6252 10.7616 54.9338 9.88716C55.2424 9.00413 55.6796 8.24541 56.2455 7.611C56.8113 6.97659 57.4886 6.48792 58.2773 6.145C59.066 5.80207 59.9362 5.63061 60.8878 5.63061C61.8737 5.63061 62.7439 5.79778 63.4983 6.13214C64.2528 6.45791 64.8829 6.92086 65.3887 7.52098C65.8945 8.1211 66.276 8.84124 66.5332 9.68141C66.7904 10.513 66.919 11.4346 66.919 12.4462V13.8737H56.014V11.5332H63.5755V11.276C63.5583 10.7359 63.4555 10.2429 63.2669 9.79715C63.0782 9.34277 62.7868 8.9827 62.3924 8.71693C61.998 8.44259 61.4879 8.30542 60.8621 8.30542C60.3563 8.30542 59.9148 8.41687 59.5375 8.63977C59.1689 8.8541 58.8603 9.16274 58.6117 9.56567C58.3716 9.96004 58.1916 10.4316 58.0715 10.9802C57.9515 11.5289 57.8915 12.1376 57.8915 12.8063V13.3207C57.8915 13.9037 57.9687 14.4438 58.123 14.941C58.2859 15.4383 58.5216 15.8712 58.8303 16.2398C59.1475 16.5999 59.5247 16.8828 59.9619 17.0886C60.4077 17.2858 60.9135 17.3844 61.4794 17.3844C62.1909 17.3844 62.8339 17.2472 63.4083 16.9729C63.9913 16.6899 64.4971 16.2741 64.9258 15.7255L66.6361 17.5001C66.3446 17.9288 65.9502 18.3403 65.453 18.7346C64.9643 19.129 64.3728 19.4505 63.6784 19.6991C62.9839 19.9392 62.1824 20.0592 61.2736 20.0592Z" fill="url(#paint4_linear_2032_21366)"/>
<path d="M77.0144 16.8443V0.0495051H80.435V19.802H77.3487L77.0144 16.8443ZM68.0769 13.0121V12.742C68.0769 11.6789 68.1969 10.7145 68.437 9.84859C68.6856 8.97413 69.0457 8.22398 69.5172 7.59814C69.9887 6.9723 70.5588 6.48792 71.2275 6.145C71.9048 5.80207 72.6721 5.63061 73.5294 5.63061C74.361 5.63061 75.0854 5.79778 75.7027 6.13214C76.3285 6.46649 76.8601 6.9423 77.2973 7.55956C77.7431 8.17683 78.0989 8.90983 78.3646 9.75857C78.6304 10.5987 78.8233 11.5246 78.9433 12.5363V13.2693C78.8233 14.2552 78.6304 15.1596 78.3646 15.9827C78.0989 16.8057 77.7431 17.5258 77.2973 18.1431C76.8601 18.7518 76.3285 19.2233 75.7027 19.5576C75.0768 19.892 74.3438 20.0592 73.5037 20.0592C72.6549 20.0592 71.8919 19.8834 71.2147 19.5319C70.5459 19.1804 69.9758 18.6875 69.5043 18.0531C69.0414 17.4187 68.6856 16.6728 68.437 15.8155C68.1969 14.9582 68.0769 14.0237 68.0769 13.0121ZM71.4847 12.742V13.0121C71.4847 13.6122 71.5361 14.1737 71.639 14.6967C71.7419 15.2196 71.9091 15.6826 72.1405 16.0855C72.372 16.4799 72.6678 16.7885 73.0279 17.0114C73.3965 17.2343 73.8423 17.3458 74.3653 17.3458C75.034 17.3458 75.5827 17.2 76.0113 16.9086C76.4485 16.6085 76.7872 16.2013 77.0272 15.6869C77.2673 15.1639 77.4216 14.5767 77.4902 13.9251V11.9061C77.4559 11.3917 77.3659 10.9159 77.2201 10.4787C77.083 10.0415 76.8858 9.66426 76.6286 9.34706C76.38 9.02985 76.0713 8.78123 75.7027 8.6012C75.334 8.42116 74.8968 8.33114 74.391 8.33114C73.868 8.33114 73.4222 8.44688 73.0536 8.67835C72.6849 8.90126 72.3849 9.21417 72.1534 9.61711C71.9219 10.02 71.7505 10.4873 71.639 11.0188C71.5361 11.5504 71.4847 12.1247 71.4847 12.742Z" fill="url(#paint5_linear_2032_21366)"/>
<path d="M86.5825 5.8878V19.802H83.1747V5.8878H86.5825ZM82.9432 2.24851C82.9432 1.7427 83.1147 1.32261 83.4576 0.988262C83.8091 0.65391 84.2806 0.486734 84.8721 0.486734C85.4637 0.486734 85.9309 0.65391 86.2739 0.988262C86.6253 1.32261 86.8011 1.7427 86.8011 2.24851C86.8011 2.74575 86.6253 3.16155 86.2739 3.4959C85.9309 3.83025 85.4637 3.99743 84.8721 3.99743C84.2806 3.99743 83.8091 3.83025 83.4576 3.4959C83.1147 3.16155 82.9432 2.74575 82.9432 2.24851Z" fill="url(#paint6_linear_2032_21366)"/>
<path d="M89.2835 0.0495051H92.6913V16.7285L92.357 19.802H89.2835V0.0495051ZM101.642 12.7034V12.9735C101.642 14.0108 101.526 14.9625 101.294 15.8283C101.072 16.6942 100.733 17.4444 100.279 18.0788C99.8242 18.7046 99.2584 19.1933 98.5811 19.5448C97.9124 19.8877 97.1279 20.0592 96.2278 20.0592C95.3704 20.0592 94.6246 19.892 93.9902 19.5576C93.3643 19.2233 92.8371 18.7518 92.4084 18.1431C91.9798 17.5258 91.6369 16.8014 91.3797 15.9698C91.1225 15.1296 90.9296 14.2123 90.801 13.2178V12.4848C90.9296 11.4818 91.1225 10.5644 91.3797 9.73285C91.6369 8.90126 91.9798 8.17683 92.4084 7.55956C92.8371 6.9423 93.3643 6.46649 93.9902 6.13214C94.616 5.79778 95.3533 5.63061 96.202 5.63061C97.1108 5.63061 97.9038 5.80636 98.5811 6.15786C99.2669 6.50078 99.8328 6.98945 100.279 7.62386C100.733 8.2497 101.072 8.99556 101.294 9.86144C101.526 10.7188 101.642 11.6661 101.642 12.7034ZM98.2339 12.9735V12.7034C98.2339 12.1119 98.1867 11.5546 98.0924 11.0317C97.9981 10.5001 97.8438 10.0329 97.6295 9.62997C97.4151 9.22703 97.1236 8.90983 96.755 8.67835C96.3864 8.44688 95.9234 8.33114 95.3662 8.33114C94.8346 8.33114 94.3802 8.42116 94.003 8.6012C93.6344 8.78123 93.3258 9.02985 93.0771 9.34706C92.8371 9.66426 92.6485 10.0372 92.5113 10.4659C92.3827 10.8945 92.297 11.3575 92.2541 11.8547V13.8608C92.3141 14.5209 92.4556 15.1168 92.6785 15.6483C92.9014 16.1713 93.2315 16.5871 93.6687 16.8957C94.1145 17.2043 94.6889 17.3586 95.3919 17.3586C95.9406 17.3586 96.3992 17.2515 96.7679 17.0371C97.1365 16.8142 97.428 16.5056 97.6423 16.1113C97.8566 15.7083 98.0067 15.2411 98.0924 14.7095C98.1867 14.178 98.2339 13.5993 98.2339 12.9735Z" fill="url(#paint7_linear_2032_21366)"/>
<path d="M107.185 0.0495051V19.802H103.777V0.0495051H107.185Z" fill="url(#paint8_linear_2032_21366)"/>
<path d="M116.148 20.0592C115.094 20.0592 114.147 19.8877 113.306 19.5448C112.466 19.2019 111.75 18.7261 111.159 18.1174C110.576 17.5001 110.126 16.7842 109.809 15.9698C109.5 15.1468 109.346 14.2637 109.346 13.3207V12.8063C109.346 11.7347 109.5 10.7616 109.809 9.88716C110.117 9.00413 110.554 8.24541 111.12 7.611C111.686 6.97659 112.363 6.48792 113.152 6.145C113.941 5.80207 114.811 5.63061 115.763 5.63061C116.749 5.63061 117.619 5.79778 118.373 6.13214C119.128 6.45791 119.758 6.92086 120.264 7.52098C120.769 8.1211 121.151 8.84124 121.408 9.68141C121.665 10.513 121.794 11.4346 121.794 12.4462V13.8737H110.889V11.5332H118.45V11.276C118.433 10.7359 118.33 10.2429 118.142 9.79715C117.953 9.34277 117.662 8.9827 117.267 8.71693C116.873 8.44259 116.363 8.30542 115.737 8.30542C115.231 8.30542 114.79 8.41687 114.412 8.63977C114.044 8.8541 113.735 9.16274 113.486 9.56567C113.246 9.96004 113.066 10.4316 112.946 10.9802C112.826 11.5289 112.766 12.1376 112.766 12.8063V13.3207C112.766 13.9037 112.843 14.4438 112.998 14.941C113.161 15.4383 113.396 15.8712 113.705 16.2398C114.022 16.5999 114.4 16.8828 114.837 17.0886C115.283 17.2858 115.788 17.3844 116.354 17.3844C117.066 17.3844 117.709 17.2472 118.283 16.9729C118.866 16.6899 119.372 16.2741 119.801 15.7255L121.511 17.5001C121.219 17.9288 120.825 18.3403 120.328 18.7346C119.839 19.129 119.248 19.4505 118.553 19.6991C117.859 19.9392 117.057 20.0592 116.148 20.0592Z" fill="url(#paint9_linear_2032_21366)"/>
<path d="M142.683 0.17627V19.6039H139L130.741 6.12731V19.6039H127.072V0.17627H130.741L139.027 13.6662V0.17627H142.683Z" fill="white"/>
<path d="M149.542 0.17627V19.6039H145.873V0.17627H149.542ZM157.374 8.5691V11.4646H148.581V8.5691H157.374ZM158.402 0.17627V3.07173H148.581V0.17627H158.402Z" fill="white"/>
<path d="M168.957 0.17627V19.6039H165.301V0.17627H168.957ZM174.988 0.17627V3.07173H159.336V0.17627H174.988Z" fill="white"/>
<defs>
<linearGradient id="paint0_linear_2032_21366" x1="-4.86602" y1="10.0298" x2="118.651" y2="10.0298" gradientUnits="userSpaceOnUse">
<stop stop-color="#E6007A"/>
<stop offset="0.001139" stop-color="#E6007A"/>
<stop offset="0.207149" stop-color="#703AC2"/>
<stop offset="0.456011" stop-color="#0070EB"/>
<stop offset="0.768132" stop-color="#0297FB"/>
<stop offset="1" stop-color="#0AE2FF"/>
</linearGradient>
<linearGradient id="paint1_linear_2032_21366" x1="-4.86602" y1="10.0298" x2="118.651" y2="10.0298" gradientUnits="userSpaceOnUse">
<stop stop-color="#E6007A"/>
<stop offset="0.001139" stop-color="#E6007A"/>
<stop offset="0.207149" stop-color="#703AC2"/>
<stop offset="0.456011" stop-color="#0070EB"/>
<stop offset="0.768132" stop-color="#0297FB"/>
<stop offset="1" stop-color="#0AE2FF"/>
</linearGradient>
<linearGradient id="paint2_linear_2032_21366" x1="-4.86602" y1="10.0298" x2="118.651" y2="10.0298" gradientUnits="userSpaceOnUse">
<stop stop-color="#E6007A"/>
<stop offset="0.001139" stop-color="#E6007A"/>
<stop offset="0.207149" stop-color="#703AC2"/>
<stop offset="0.456011" stop-color="#0070EB"/>
<stop offset="0.768132" stop-color="#0297FB"/>
<stop offset="1" stop-color="#0AE2FF"/>
</linearGradient>
<linearGradient id="paint3_linear_2032_21366" x1="-4.86602" y1="10.0298" x2="118.651" y2="10.0298" gradientUnits="userSpaceOnUse">
<stop stop-color="#E6007A"/>
<stop offset="0.001139" stop-color="#E6007A"/>
<stop offset="0.207149" stop-color="#703AC2"/>
<stop offset="0.456011" stop-color="#0070EB"/>
<stop offset="0.768132" stop-color="#0297FB"/>
<stop offset="1" stop-color="#0AE2FF"/>
</linearGradient>
<linearGradient id="paint4_linear_2032_21366" x1="-4.86602" y1="10.0298" x2="118.651" y2="10.0298" gradientUnits="userSpaceOnUse">
<stop stop-color="#E6007A"/>
<stop offset="0.001139" stop-color="#E6007A"/>
<stop offset="0.207149" stop-color="#703AC2"/>
<stop offset="0.456011" stop-color="#0070EB"/>
<stop offset="0.768132" stop-color="#0297FB"/>
<stop offset="1" stop-color="#0AE2FF"/>
</linearGradient>
<linearGradient id="paint5_linear_2032_21366" x1="-4.86602" y1="10.0298" x2="118.651" y2="10.0298" gradientUnits="userSpaceOnUse">
<stop stop-color="#E6007A"/>
<stop offset="0.001139" stop-color="#E6007A"/>
<stop offset="0.207149" stop-color="#703AC2"/>
<stop offset="0.456011" stop-color="#0070EB"/>
<stop offset="0.768132" stop-color="#0297FB"/>
<stop offset="1" stop-color="#0AE2FF"/>
</linearGradient>
<linearGradient id="paint6_linear_2032_21366" x1="-4.86602" y1="10.0298" x2="118.651" y2="10.0298" gradientUnits="userSpaceOnUse">
<stop stop-color="#E6007A"/>
<stop offset="0.001139" stop-color="#E6007A"/>
<stop offset="0.207149" stop-color="#703AC2"/>
<stop offset="0.456011" stop-color="#0070EB"/>
<stop offset="0.768132" stop-color="#0297FB"/>
<stop offset="1" stop-color="#0AE2FF"/>
</linearGradient>
<linearGradient id="paint7_linear_2032_21366" x1="-4.86602" y1="10.0298" x2="118.651" y2="10.0298" gradientUnits="userSpaceOnUse">
<stop stop-color="#E6007A"/>
<stop offset="0.001139" stop-color="#E6007A"/>
<stop offset="0.207149" stop-color="#703AC2"/>
<stop offset="0.456011" stop-color="#0070EB"/>
<stop offset="0.768132" stop-color="#0297FB"/>
<stop offset="1" stop-color="#0AE2FF"/>
</linearGradient>
<linearGradient id="paint8_linear_2032_21366" x1="-4.86602" y1="10.0298" x2="118.651" y2="10.0298" gradientUnits="userSpaceOnUse">
<stop stop-color="#E6007A"/>
<stop offset="0.001139" stop-color="#E6007A"/>
<stop offset="0.207149" stop-color="#703AC2"/>
<stop offset="0.456011" stop-color="#0070EB"/>
<stop offset="0.768132" stop-color="#0297FB"/>
<stop offset="1" stop-color="#0AE2FF"/>
</linearGradient>
<linearGradient id="paint9_linear_2032_21366" x1="-4.86602" y1="10.0298" x2="118.651" y2="10.0298" gradientUnits="userSpaceOnUse">
<stop stop-color="#E6007A"/>
<stop offset="0.001139" stop-color="#E6007A"/>
<stop offset="0.207149" stop-color="#703AC2"/>
<stop offset="0.456011" stop-color="#0070EB"/>
<stop offset="0.768132" stop-color="#0297FB"/>
<stop offset="1" stop-color="#0AE2FF"/>
</linearGradient>
</defs>
</svg>
