<svg width="360" height="80" viewBox="0 0 360 80" fill="none" xmlns="http://www.w3.org/2000/svg">
<path d="M79.898 37.2865C78.3988 15.2441 59.3205 -1.40401 37.285 0.095146C26.3049 0.841301 16.6665 5.95486 9.93739 13.6149L9.91685 13.6012C9.86894 13.6628 9.82786 13.7245 9.78679 13.7861C3.10562 21.4941 -0.652534 31.7349 0.0936211 42.715C0.162076 43.7623 0.285294 44.7891 0.435894 45.8091C0.435894 45.857 0.449585 45.8981 0.45643 45.946C0.559112 46.6169 0.675485 47.2877 0.805549 47.9449C0.805549 47.9586 0.805549 47.9723 0.812394 47.9791C0.935613 48.5747 1.06568 49.1702 1.21628 49.759C5.83696 68.1801 23.0944 81.2275 42.7134 79.8927C64.749 78.3935 81.404 59.3152 79.9048 37.2728L79.898 37.2865ZM71.1906 37.8821C71.3754 40.5929 71.2042 43.2489 70.7182 45.8091C70.7182 45.7954 70.7045 45.7817 70.7045 45.768C67.8021 38.683 62.0656 33.5626 57.0273 30.7354C58.0473 18.7285 53.9742 13.6628 49.3604 12.8414C49.2372 12.814 49.1071 12.7935 48.9839 12.7798C45.3216 12.3074 41.9741 14.895 41.5086 18.5573C41.0363 22.2197 43.6239 25.5671 47.2862 26.0326C47.608 26.0737 47.9228 26.0874 48.2309 26.0805C48.2514 26.4844 48.2651 26.9157 48.2651 27.3675C44.0004 26.3133 40.0163 26.101 36.3814 26.4296C35.0192 26.5186 33.6638 26.6898 32.3084 26.943C32.7602 22.8905 34.2867 18.3314 37.2371 15.0046C40.0916 11.7803 44.3358 9.93892 48.9634 10.4113C49.8396 10.5002 50.7774 10.7193 51.6194 11C51.6605 11.0137 51.7015 11.0273 51.7358 11.0342C62.4558 15.4016 70.3486 25.5808 71.1837 37.8821H71.1906ZM43.309 43.9882C43.309 43.9882 43.309 43.9951 43.3022 44.0019C42.3506 45.3779 41.2143 46.7333 39.8794 48.0476C37.8806 45.9255 36.2787 43.6323 35.0602 41.2637C34.9986 41.1337 34.9302 41.0173 34.8686 40.8872C34.8686 40.8872 34.8686 40.8804 34.8686 40.8735C34.1566 39.3607 33.5474 37.6972 33.075 35.8832C35.9159 35.2123 38.702 34.9659 41.3649 35.096C41.5086 35.1028 41.6456 35.1097 41.7893 35.1165H41.803C43.4733 35.2534 45.212 35.5615 47.0124 36.0543C46.1704 38.8473 44.993 41.387 43.5486 43.6254C43.4733 43.7418 43.398 43.8582 43.3158 43.9814L43.309 43.9882ZM29.6455 10.4934C29.6455 10.4934 29.6318 10.5139 29.6249 10.5208C24.9358 16.5722 23.375 24.0953 23.4435 29.8729C12.5318 34.9933 10.1907 41.0515 11.7788 45.46C11.8199 45.5832 11.8678 45.6996 11.9157 45.816C13.3396 49.2182 17.2552 50.8268 20.6574 49.403C24.0596 47.9791 25.6683 44.0635 24.2444 40.6613C24.1212 40.367 23.9706 40.0863 23.8131 39.8193C24.1554 39.5934 24.5251 39.3675 24.9221 39.1348C26.1406 43.3584 27.9409 46.9249 30.0425 49.9096C30.8023 51.0391 31.6238 52.1275 32.5206 53.1748C28.7829 54.8109 24.0733 55.7693 19.7127 54.8794C15.4959 54.0168 11.7788 51.265 9.86894 47.0208C9.50613 46.213 9.22546 45.2957 9.04748 44.4263C8.93795 43.6665 8.84896 42.8998 8.7942 42.1194C7.82214 27.7919 16.7076 15.0388 29.6455 10.4934ZM42.1179 71.1921C33.609 71.7739 25.6546 68.8715 19.6443 63.71C27.229 64.7437 34.5263 62.3341 39.4961 59.3837C49.3878 66.277 55.8088 65.2776 58.8345 61.6974C58.9166 61.6016 58.9988 61.4989 59.0741 61.3962C61.3126 58.4595 60.7444 54.2701 57.8077 52.0316C54.871 49.7932 50.6816 50.3614 48.4431 53.2981C48.2514 53.5513 48.0803 53.8252 47.9297 54.099C47.5669 53.9141 47.1835 53.7088 46.7933 53.4829C49.8464 50.3134 52.0164 46.966 53.5498 43.6528C54.1522 42.4275 54.6793 41.1679 55.138 39.8673C58.4238 42.2906 61.6138 45.8844 63.0239 50.1081C64.3862 54.188 63.8659 58.7881 61.1414 62.56C60.628 63.2719 59.9708 63.977 59.3068 64.5657C59.3 64.5725 59.2863 64.5862 59.2795 64.5931C54.515 68.3375 48.6142 70.7471 42.1247 71.1852L42.1179 71.1921Z" fill="url(#paint0_linear_1100_15125)"/>
<path style="mix-blend-mode:overlay" opacity="0.9" d="M49.3604 12.8343C49.2371 12.8069 49.1071 12.7864 48.9839 12.7727C48.3335 12.6906 47.6969 12.7043 47.0877 12.8069C50.9143 14.888 53.7004 20.6861 52.2355 32.1317C51.7494 35.9241 50.6199 39.5248 48.9976 42.838C47.6764 45.6857 45.8829 48.5539 43.4733 51.3127C44.6301 52.182 45.7597 52.9076 46.7933 53.4964C49.8464 50.3269 52.0164 46.9795 53.5498 43.6663C55.179 40.3599 56.3017 36.7524 56.7877 32.96C58.5333 19.3375 54.248 13.7105 49.3604 12.8412V12.8343Z" fill="url(#paint1_radial_1100_15125)"/>
<g style="mix-blend-mode:overlay" opacity="0.8">
<path d="M52.2354 32.1248C53.7003 20.686 50.9142 14.8811 47.0876 12.8C46.937 12.8206 46.7933 12.8548 46.6427 12.889C50.3871 15.0454 53.0842 20.8366 51.6399 32.1248C51.1538 35.9172 50.0243 39.5179 48.402 42.8311C47.1287 45.583 45.4036 48.3554 43.1104 51.0319C43.2336 51.1278 43.35 51.2168 43.4732 51.3058C45.8828 48.547 47.6763 45.6719 48.9975 42.8311C50.6267 39.5247 51.7494 35.9172 52.2354 32.1248Z" fill="white"/>
</g>
<path style="mix-blend-mode:overlay" opacity="0.5" d="M37.6889 58.076C37.3261 57.8022 36.9838 57.5147 36.6347 57.2272C30.9872 59.582 23.1628 61.0606 15.3864 59.2534C16.6596 60.8758 18.0766 62.375 19.6374 63.7098C27.2222 64.7435 34.5194 62.3339 39.4892 59.3835C38.9005 58.9728 38.2981 58.5347 37.682 58.0692L37.6889 58.076Z" fill="url(#paint2_radial_1100_15125)"/>
<path style="mix-blend-mode:overlay" opacity="0.6" d="M36.6415 57.2272C36.4704 57.0834 36.2924 56.9397 36.1281 56.7959C30.4395 59.0686 22.5741 60.4308 14.8182 58.4936C15.0098 58.7469 15.2015 59.007 15.3932 59.2534C23.1628 61.0606 30.994 59.582 36.6415 57.2272Z" fill="url(#paint3_linear_1100_15125)"/>
<path style="mix-blend-mode:overlay" opacity="0.9" d="M11.7857 45.4667C11.8267 45.59 11.8747 45.7063 11.9226 45.8227C12.1759 46.4251 12.5044 46.9659 12.9015 47.4519C12.7919 43.0982 16.42 37.7793 27.0579 33.3297C30.5833 31.858 34.2661 31.0297 37.949 30.7832C41.0705 30.5026 44.459 30.6189 48.0529 31.3309C48.224 29.8933 48.2925 28.5516 48.2788 27.3673C44.0141 26.3063 40.0232 26.1009 36.3882 26.4295C32.7122 26.676 29.0225 27.5043 25.4971 28.976C12.8262 34.2744 10.0948 40.7981 11.7857 45.4736V45.4667Z" fill="url(#paint4_radial_1100_15125)"/>
<g style="mix-blend-mode:overlay" opacity="0.8">
<path d="M27.0579 33.3366C16.4201 37.7861 12.792 43.1051 12.9015 47.4588C12.9973 47.5751 13.1 47.6847 13.2027 47.7942C13.1959 43.4747 16.865 38.2448 27.3591 33.85C30.8845 32.3782 34.5674 31.5499 38.2502 31.3035C41.2691 31.0297 44.5344 31.1392 47.9982 31.7827C48.0187 31.6321 48.0392 31.4815 48.0529 31.3309C44.4591 30.6258 41.0706 30.5026 37.949 30.7832C34.273 31.0297 30.5833 31.858 27.0579 33.3297V33.3366Z" fill="white"/>
</g>
<path style="mix-blend-mode:overlay" opacity="0.4" d="M56.8014 32.9532C56.7467 33.405 56.6714 33.8431 56.5961 34.288C61.4563 37.9983 66.652 44.0428 68.9795 51.6755C69.7462 49.7588 70.3349 47.7804 70.7114 45.761C67.8158 38.676 62.0793 33.5624 57.041 30.7352C56.9794 31.454 56.9041 32.1865 56.8083 32.9532H56.8014Z" fill="url(#paint5_radial_1100_15125)"/>
<path style="mix-blend-mode:overlay" opacity="0.5" d="M56.596 34.2881C56.555 34.5071 56.5207 34.733 56.4797 34.9521C61.292 38.7445 66.4056 44.8712 68.603 52.5586C68.733 52.2643 68.8563 51.9699 68.9726 51.6755C66.6452 44.0429 61.4563 38.0052 56.5892 34.2881H56.596Z" fill="url(#paint6_linear_1100_15125)"/>
<path style="mix-blend-mode:overlay" opacity="0.9" d="M58.8345 61.6905C58.9166 61.5946 58.9988 61.492 59.0741 61.3893C59.4711 60.869 59.7723 60.3077 59.9982 59.7327C56.2811 62.0054 49.8669 61.5193 40.6872 54.5301C37.6478 52.2164 35.0876 49.4371 33.034 46.3703C31.2268 43.8033 29.6386 40.8187 28.4543 37.348C27.1263 37.9162 25.9284 38.5323 24.9016 39.1347C26.12 43.3583 27.9341 46.918 30.0356 49.9026C32.0893 52.9694 34.6495 55.7418 37.6889 58.0624C48.6142 66.3865 55.6308 65.4897 58.8276 61.6905H58.8345Z" fill="url(#paint7_radial_1100_15125)"/>
<g style="mix-blend-mode:overlay" opacity="0.8">
<path d="M40.694 54.5301C49.8669 61.5193 56.288 62.0054 60.005 59.7327C60.0598 59.5889 60.1077 59.4452 60.1488 59.3082C56.4112 61.4783 50.0449 60.9101 40.9952 54.0167C37.9558 51.7029 35.3956 48.9237 33.342 45.8569C31.5964 43.3789 30.0562 40.4969 28.8856 37.1769C28.7418 37.2385 28.6049 37.2933 28.468 37.3549C29.6523 40.8255 31.2404 43.8101 33.0476 46.3772C35.1013 49.4439 37.6615 52.2164 40.7009 54.537L40.694 54.5301Z" fill="white"/>
</g>
<path style="mix-blend-mode:overlay" opacity="0.3" d="M25.4902 28.9622C25.9078 28.7911 26.3254 28.6337 26.7498 28.4762C27.5302 22.4111 30.1657 14.888 35.6147 9.0625C33.5747 9.35685 31.569 9.83604 29.6249 10.5137C24.9357 16.5651 23.375 24.0883 23.4434 29.8659C24.0937 29.5578 24.7714 29.2566 25.4834 28.9622H25.4902Z" fill="url(#paint8_radial_1100_15125)"/>
<path style="mix-blend-mode:overlay" opacity="0.4" d="M26.7498 28.4763C26.962 28.401 27.1673 28.3188 27.3795 28.2435C28.2558 22.1784 31.0076 14.6895 36.5593 8.93933C36.2444 8.97356 35.9295 9.01463 35.6146 9.0557C30.1656 14.888 27.5301 22.4043 26.7498 28.4694V28.4763Z" fill="url(#paint9_linear_1100_15125)"/>
<path style="mix-blend-mode:multiply" opacity="0.4" d="M37.285 0.0949482C26.3049 0.841103 16.6665 5.95466 9.9374 13.6147C9.88949 13.6695 9.83472 13.7311 9.7868 13.7859C11.0943 15.0865 15.3795 17.6467 17.1114 18.7146C20.5205 15.0523 24.7989 12.1909 29.6523 10.4932C29.9878 10.0551 30.3437 9.62383 30.7134 9.20625C35.2314 4.10639 41.3991 1.41612 48.5595 1.41612C49.3536 1.41612 50.9759 1.54619 51.0102 1.54619C46.6701 0.300312 42.0495 -0.233634 37.285 0.0949482Z" fill="url(#paint10_linear_1100_15125)"/>
<path style="mix-blend-mode:multiply" opacity="0.4" d="M42.1179 71.1987C33.609 71.7806 25.6545 68.8781 19.6442 63.7167C19.0829 63.6414 18.5216 63.5524 17.9602 63.436C11.2859 62.0737 5.86431 58.076 2.29098 51.8809C1.89395 51.1895 1.53798 50.4912 1.21625 49.7725C5.83693 68.1936 23.0943 81.241 42.7066 79.9062C42.7956 77.8868 42.2 73.1976 42.111 71.1987H42.1179Z" fill="url(#paint11_linear_1100_15125)"/>
<path style="mix-blend-mode:multiply" opacity="0.4" d="M79.8979 37.2864C78.6657 37.1632 72.6691 37.6355 71.1905 37.8819C71.3753 40.5927 71.2042 43.2488 70.7182 45.809C70.9235 46.3155 71.1221 46.8358 71.3 47.3629C73.4564 53.825 72.7034 60.513 69.13 66.715C68.7398 67.3927 68.3154 68.043 67.8705 68.666C67.8636 68.6797 67.8499 68.6933 67.8431 68.7002C67.8431 68.7002 67.8636 68.6865 67.8705 68.6728C75.996 60.7663 80.7262 49.485 79.8979 37.2932V37.2864Z" fill="url(#paint12_linear_1100_15125)"/>
<path style="mix-blend-mode:multiply" opacity="0.5" d="M48.9701 10.4043C49.8464 10.4932 50.7842 10.7123 51.6262 10.993C51.6673 11.0067 51.7083 11.0203 51.7426 11.0272C55.1927 12.4305 58.3484 14.4431 61.0729 16.928C61.0729 16.928 61.0866 16.9348 61.0935 16.9417C62.4078 15.4425 64.9338 13.7928 64.9338 13.7928C64.9338 13.7928 61.0661 9.83608 55.1448 8.6039C51.0032 7.74137 41.6592 6.91307 35.7653 16.9417C35.7653 16.9417 35.7858 16.9211 35.82 16.8869C36.2581 16.2297 36.7168 15.5863 37.2439 14.9976C40.0984 11.7733 44.3426 9.93192 48.9701 10.4043Z" fill="url(#paint13_linear_1100_15125)"/>
<path style="mix-blend-mode:multiply" opacity="0.5" d="M61.1414 62.5666C60.628 63.2785 59.9709 63.9836 59.3068 64.5723C59.2795 64.5997 59.2452 64.6271 59.2179 64.6545C56.2743 66.9408 52.9543 68.6659 49.4425 69.7817C49.4357 69.7817 49.4288 69.7817 49.422 69.7886C50.0655 71.6779 50.2298 74.6899 50.2298 74.6899C50.2298 74.6899 55.5898 73.3208 59.6149 68.8097C62.4284 65.6539 67.8226 57.9733 62.0861 47.8557C62.0861 47.8557 62.0929 47.8899 62.1066 47.931C62.4626 48.6361 62.7843 49.3617 63.0308 50.1079C64.393 54.1878 63.8728 58.7879 61.1483 62.5598L61.1414 62.5666Z" fill="url(#paint14_linear_1100_15125)"/>
<path style="mix-blend-mode:multiply" opacity="0.5" d="M9.88262 47.0343C9.51981 46.2265 9.23914 45.3092 9.06116 44.4399C9.05432 44.3988 9.04063 44.3577 9.03378 44.3166C8.52722 40.6269 8.69151 36.8893 9.47874 33.2886C9.47874 33.2818 9.47874 33.2749 9.47874 33.2681C7.52093 32.8847 4.83067 31.5156 4.83067 31.5156C4.83067 31.5156 3.33836 36.8482 5.23455 42.5847C6.56257 46.603 10.5124 55.1119 22.1428 55.2009C22.1428 55.2009 22.1086 55.1941 22.0675 55.1804C21.2803 55.1325 20.4931 55.0503 19.7195 54.8929C15.5027 54.0303 11.7857 51.2785 9.87577 47.0343H9.88262Z" fill="url(#paint15_linear_1100_15125)"/>
<path style="mix-blend-mode:multiply" opacity="0.6" d="M47.2862 26.0255C47.6079 26.0666 47.9228 26.0803 48.2309 26.0734C48.2309 26.0734 48.0187 21.9183 47.5121 19.7825C46.9987 17.6535 46.2457 16.2365 45.4242 15.4356C44.8287 14.8606 42.9599 14.1487 41.5086 18.5434C41.0363 22.2058 43.6239 25.5532 47.2862 26.0187V26.0255Z" fill="url(#paint16_linear_1100_15125)"/>
<path style="mix-blend-mode:multiply" opacity="0.5" d="M24.2512 40.6748C24.128 40.3804 23.9774 40.0997 23.82 39.8328C23.82 39.8328 20.322 42.0918 18.7338 43.5978C17.1457 45.1038 16.2968 46.466 16.0162 47.5818C15.8176 48.3827 16.1325 50.3542 20.6642 49.4164C24.0664 47.9926 25.6751 44.0769 24.2512 40.6748Z" fill="url(#paint17_linear_1100_15125)"/>
<path style="mix-blend-mode:multiply" opacity="0.6" d="M48.4499 53.291C48.2583 53.5443 48.0871 53.8181 47.9365 54.092C47.9365 54.092 51.6399 55.9882 53.7415 56.6111C55.843 57.234 57.4449 57.2888 58.547 56.9739C59.3411 56.748 60.8881 55.4816 57.8145 52.0315C54.8778 49.793 50.6884 50.3612 48.4499 53.2979V53.291Z" fill="url(#paint18_linear_1100_15125)"/>
<path style="mix-blend-mode:multiply" opacity="0.3" d="M47.0124 36.0609C46.1704 38.8539 44.993 41.3935 43.5486 43.632C43.4733 43.7484 43.398 43.8647 43.3159 43.988C43.3159 43.988 43.3159 43.9948 43.309 44.0016C42.3575 45.3776 41.2212 46.733 39.8863 48.0473C40.8036 49.0194 41.7893 49.964 42.8778 50.8608C44.2468 51.9355 45.5817 52.8049 46.7934 53.4895C49.8464 50.32 52.0164 46.9726 53.5498 43.6594C54.1522 42.434 54.6793 41.1745 55.138 39.8738C53.7278 38.8402 52.304 38.0119 50.9896 37.4505C49.6342 36.8687 48.3062 36.4169 47.0056 36.0609H47.0124Z" fill="url(#paint19_linear_1100_15125)"/>
<path style="mix-blend-mode:multiply" opacity="0.3" d="M19.6443 63.7166C27.229 64.7503 34.5263 62.3407 39.4961 59.3903C38.9074 58.9796 38.305 58.5415 37.6889 58.076C35.7722 56.6111 34.0471 54.9681 32.5137 53.1815C28.7761 54.8175 24.0664 55.7759 19.7059 54.886C15.4891 54.0235 11.772 51.2716 9.8621 47.0274C9.4993 46.2196 9.21863 45.3024 9.04065 44.433C10.1428 52.1684 14.0447 58.918 19.6374 63.7166H19.6443Z" fill="url(#paint20_linear_1100_15125)"/>
<path style="mix-blend-mode:multiply" opacity="0.3" d="M39.8863 48.0473C37.8874 45.9252 36.2856 43.632 35.0671 41.2635C35.0055 41.1334 34.937 41.017 34.8754 40.887C34.8754 40.887 34.8754 40.8801 34.8754 40.8733C34.1635 39.3604 33.5542 37.697 33.0819 35.8829C31.7813 36.191 30.4738 36.5743 29.1594 37.0672C27.5439 37.7107 26.1269 38.4363 24.929 39.1345C26.1474 43.3582 27.9478 46.9247 30.0494 49.9093C30.8092 51.0388 31.6307 52.1272 32.5274 53.1746C34.1293 52.4763 35.56 51.648 36.7031 50.7923C37.8806 49.9093 38.9348 48.9851 39.8931 48.0405L39.8863 48.0473Z" fill="url(#paint21_linear_1100_15125)"/>
<path style="mix-blend-mode:multiply" opacity="0.3" d="M29.6249 10.5205C24.9358 16.5719 23.375 24.0951 23.4435 29.8727C24.0938 29.5646 24.7784 29.2634 25.4903 28.9622C27.7151 28.0312 30.0014 27.3604 32.3084 26.9291C32.7602 22.8766 34.2867 18.3175 37.2371 14.9906C40.0916 11.7664 44.3358 9.92499 48.9634 10.3973C49.8396 10.4863 50.7774 10.7054 51.6194 10.986C51.6605 10.9997 51.7015 11.0134 51.7358 11.0203C47.4711 9.28152 42.7614 8.46006 37.8669 8.79549C34.9918 8.99401 32.2399 9.57587 29.6386 10.4932C29.6318 10.5 29.6249 10.5137 29.6181 10.5205H29.6249Z" fill="url(#paint22_linear_1100_15125)"/>
<path style="mix-blend-mode:multiply" opacity="0.3" d="M70.7114 45.7541C67.8089 38.669 62.0724 33.5486 57.0341 30.7214C56.9725 31.4402 56.8972 32.1795 56.7945 32.9531C56.4865 35.3421 55.9252 37.6559 55.1448 39.8738C58.4306 42.2971 61.6206 45.891 63.0307 50.1146C64.393 54.1945 63.8727 58.7947 61.1482 62.5665C60.6348 63.2784 59.9777 63.9835 59.3137 64.5722C59.3068 64.5791 59.2931 64.5928 59.2863 64.5996C65.1597 59.9858 69.3149 53.332 70.7387 45.802C70.7387 45.7883 70.725 45.7746 70.725 45.7609L70.7114 45.7541Z" fill="url(#paint23_linear_1100_15125)"/>
<path style="mix-blend-mode:multiply" opacity="0.3" d="M32.2878 31.7483C32.4658 33.2132 32.7328 34.5823 33.0751 35.8829C35.9159 35.2121 38.702 34.9656 41.3649 35.0957C41.5087 35.1025 41.6456 35.1094 41.7893 35.1162H41.803C43.4733 35.2531 45.2121 35.5612 47.0124 36.0541C47.3958 34.7739 47.7175 33.4459 47.9502 32.0631C48.2035 30.3381 48.2788 28.7431 48.272 27.3535C44.0073 26.2993 40.0232 26.0871 36.3883 26.4156C35.026 26.5046 33.6706 26.6758 32.3152 26.9291C32.1235 28.6678 32.1167 30.3176 32.2947 31.7414L32.2878 31.7483Z" fill="url(#paint24_linear_1100_15125)"/>
<path d="M200.57 29.7084L195.422 44.0359H195.463L200.597 29.7905L200.57 29.7084Z" fill="url(#paint25_linear_1100_15125)"/>
<path d="M109.19 29.7084L104.042 44.0359H104.062L109.21 29.7563L109.19 29.7084Z" fill="url(#paint26_linear_1100_15125)"/>
<path d="M110.477 33.2886L114.337 44.036H106.595L104.644 49.4576H116.309L119.615 58.6511H127.015L113.53 24.8208L110.477 33.2886Z" fill="url(#paint27_linear_1100_15125)"/>
<path d="M104.042 44.0359L109.19 29.7084L109.21 29.7563L111.38 23.7323H105.699L91.8228 58.651H98.7914L104.062 44.0359H104.042Z" fill="url(#paint28_linear_1100_15125)"/>
<path d="M149.434 40.6612C147.75 39.6686 145.512 38.7376 142.726 37.8819C141.131 37.3616 139.885 36.8825 138.981 36.4375C138.078 35.9926 137.448 35.486 137.099 34.9247C136.75 34.3565 136.572 33.6925 136.572 32.9258C136.572 31.5772 137.092 30.5367 138.132 29.8043C139.173 29.0718 140.631 28.7021 142.5 28.7021C144.033 28.7021 145.628 28.9349 147.298 29.3935C148.969 29.8522 150.447 30.482 151.734 31.276L152.699 25.6285C151.385 24.8345 149.783 24.1978 147.901 23.7186C146.018 23.2463 144.143 23.0067 142.274 23.0067C139.734 23.0067 137.523 23.4174 135.661 24.2457C133.792 25.074 132.348 26.2515 131.321 27.7848C130.294 29.3182 129.781 31.1254 129.781 33.2064C129.781 34.9863 130.123 36.5197 130.815 37.8203C131.506 39.1209 132.629 40.2504 134.189 41.1951C135.75 42.1466 137.804 43.0023 140.343 43.769C142.178 44.3235 143.602 44.8437 144.615 45.3298C145.628 45.8158 146.333 46.3634 146.73 46.959C147.127 47.5545 147.326 48.2665 147.326 49.0948C147.326 50.5323 146.737 51.6618 145.56 52.4696C144.382 53.2773 142.746 53.6881 140.665 53.6881C138.858 53.6881 136.969 53.4074 134.99 52.8392C133.012 52.2711 131.294 51.5454 129.822 50.6555L129.178 56.4879C130.034 57.0697 131.109 57.5763 132.396 58.0007C133.683 58.432 135.066 58.7674 136.551 59.0138C138.036 59.2603 139.515 59.3835 140.987 59.3835C145.122 59.3835 148.366 58.4388 150.728 56.5563C153.083 54.6738 154.267 52.0657 154.267 48.7251C154.267 46.9521 153.884 45.4119 153.117 44.1113C152.35 42.8106 151.125 41.6606 149.441 40.668L149.434 40.6612Z" fill="url(#paint29_linear_1100_15125)"/>
<path d="M186.092 23.7323H156.553V29.4277H186.092V23.7323Z" fill="url(#paint30_linear_1100_15125)"/>
<path d="M174.838 31.8099H167.807V58.6441H174.838V31.8099Z" fill="url(#paint31_linear_1100_15125)"/>
<path d="M195.422 44.0359L200.57 29.7084L200.597 29.7905L202.781 23.7323H197.072L183.203 58.651H190.185L193.491 49.4575H193.505L195.463 44.0359H195.422Z" fill="url(#paint32_linear_1100_15125)"/>
<path d="M201.864 33.316L205.711 44.036H197.996L196.045 49.4576H207.689L210.995 58.651H218.395L204.917 24.8481L201.864 33.316Z" fill="url(#paint33_linear_1100_15125)"/>
<path d="M241.129 44.5015C242.813 43.55 244.189 42.2768 245.264 40.6681C246.338 39.0594 246.872 37.1837 246.872 35.0411C246.872 32.7136 246.352 30.7079 245.312 29.0239C244.271 27.34 242.786 26.0393 240.855 25.122C238.925 24.2047 236.632 23.7461 233.962 23.7461H231.518V29.0308H233.038C237.693 29.0308 240.02 31.0228 240.02 35C240.02 38.9772 237.617 40.9693 232.805 40.9693H231.511V46.254H235.098L242.45 58.6579H250.309L241.122 44.5084L241.129 44.5015Z" fill="url(#paint34_linear_1100_15125)"/>
<path d="M229.143 23.7323H222.482V58.6441H229.143V23.7323Z" fill="url(#paint35_linear_1100_15125)"/>
<path d="M263.799 58.7097V23.7497H270.009L288.639 48.5437V23.7497H295.033V58.7097H288.823L270.193 33.9617V58.7097H263.799ZM303.42 58.7097V23.7497H325.868V29.4077H310.274V39.1137H323.752V44.7717H310.274V58.7097H303.42ZM341.134 58.7097V29.4997H329.864V23.7497H359.442V29.4997H348.172V58.7097H341.134Z" fill="white"/>
<defs>
<linearGradient id="paint0_linear_1100_15125" x1="12.703" y1="67.297" x2="63.7016" y2="16.2915" gradientUnits="userSpaceOnUse">
<stop stop-color="#E6007A"/>
<stop offset="0.21" stop-color="#703AC2"/>
<stop offset="0.46" stop-color="#0070EB"/>
<stop offset="0.77" stop-color="#0297FB"/>
<stop offset="1" stop-color="#0AE2FF"/>
</linearGradient>
<radialGradient id="paint1_radial_1100_15125" cx="0" cy="0" r="1" gradientUnits="userSpaceOnUse" gradientTransform="translate(51.4003 31.8989) scale(15.2106)">
<stop stop-color="white"/>
<stop offset="1" stop-color="white" stop-opacity="0"/>
</radialGradient>
<radialGradient id="paint2_radial_1100_15125" cx="0" cy="0" r="1" gradientUnits="userSpaceOnUse" gradientTransform="translate(28.9198 60.116) scale(8.85118 8.85118)">
<stop stop-color="white"/>
<stop offset="1" stop-color="white" stop-opacity="0"/>
</radialGradient>
<linearGradient id="paint3_linear_1100_15125" x1="15.6396" y1="58.6168" x2="24.1691" y2="58.5004" gradientUnits="userSpaceOnUse">
<stop stop-color="white" stop-opacity="0"/>
<stop offset="1" stop-color="white"/>
</linearGradient>
<radialGradient id="paint4_radial_1100_15125" cx="0" cy="0" r="1" gradientUnits="userSpaceOnUse" gradientTransform="translate(27.2873 34.1712) rotate(-120) scale(15.2106)">
<stop stop-color="white"/>
<stop offset="1" stop-color="white" stop-opacity="0"/>
</radialGradient>
<radialGradient id="paint5_radial_1100_15125" cx="0" cy="0" r="1" gradientUnits="userSpaceOnUse" gradientTransform="translate(62.9642 39.5313) rotate(-120) scale(8.85118 8.85118)">
<stop stop-color="white"/>
<stop offset="1" stop-color="white" stop-opacity="0"/>
</radialGradient>
<linearGradient id="paint6_linear_1100_15125" x1="68.3026" y1="51.776" x2="63.9371" y2="44.4474" gradientUnits="userSpaceOnUse">
<stop stop-color="white" stop-opacity="0"/>
<stop offset="1" stop-color="white"/>
</linearGradient>
<radialGradient id="paint7_radial_1100_15125" cx="0" cy="0" r="1" gradientUnits="userSpaceOnUse" gradientTransform="translate(40.5872 53.2143) rotate(120) scale(15.2106)">
<stop stop-color="white"/>
<stop offset="1" stop-color="white" stop-opacity="0"/>
</radialGradient>
<radialGradient id="paint8_radial_1100_15125" cx="0" cy="0" r="1" gradientUnits="userSpaceOnUse" gradientTransform="translate(28.1119 20.3459) rotate(120) scale(8.85118)">
<stop stop-color="white"/>
<stop offset="1" stop-color="white" stop-opacity="0"/>
</radialGradient>
<linearGradient id="paint9_linear_1100_15125" x1="36.0443" y1="9.59111" x2="31.8863" y2="17.0394" gradientUnits="userSpaceOnUse">
<stop stop-color="white" stop-opacity="0"/>
<stop offset="1" stop-color="white"/>
</linearGradient>
<linearGradient id="paint10_linear_1100_15125" x1="37.9011" y1="5.80406" x2="24.8673" y2="9.59644" gradientUnits="userSpaceOnUse">
<stop stop-color="#231F20"/>
<stop offset="1" stop-color="white"/>
</linearGradient>
<linearGradient id="paint11_linear_1100_15125" x1="13.2779" y1="55.5021" x2="24.1759" y2="66.8793" gradientUnits="userSpaceOnUse">
<stop stop-color="#231F20"/>
<stop offset="1" stop-color="white"/>
</linearGradient>
<linearGradient id="paint12_linear_1100_15125" x1="71.7655" y1="53.7908" x2="75.5579" y2="42.263" gradientUnits="userSpaceOnUse">
<stop stop-color="#231F20"/>
<stop offset="1" stop-color="white"/>
</linearGradient>
<linearGradient id="paint13_linear_1100_15125" x1="43.8361" y1="12.4031" x2="61.3057" y2="16.4009" gradientUnits="userSpaceOnUse">
<stop stop-color="#231F20"/>
<stop offset="1" stop-color="white"/>
</linearGradient>
<linearGradient id="paint14_linear_1100_15125" x1="61.981" y1="57.1199" x2="49.7747" y2="70.2527" gradientUnits="userSpaceOnUse">
<stop stop-color="#231F20"/>
<stop offset="1" stop-color="white"/>
</linearGradient>
<linearGradient id="paint15_linear_1100_15125" x1="14.176" y1="50.4813" x2="8.90931" y2="33.3499" gradientUnits="userSpaceOnUse">
<stop stop-color="#231F20"/>
<stop offset="1" stop-color="white"/>
</linearGradient>
<linearGradient id="paint16_linear_1100_15125" x1="47.6559" y1="18.8446" x2="42.1316" y2="24.3758" gradientUnits="userSpaceOnUse">
<stop stop-color="#231F20"/>
<stop offset="1" stop-color="white"/>
</linearGradient>
<linearGradient id="paint17_linear_1100_15125" x1="17.8508" y1="43.935" x2="25.4005" y2="45.963" gradientUnits="userSpaceOnUse">
<stop stop-color="#231F20"/>
<stop offset="1" stop-color="white"/>
</linearGradient>
<linearGradient id="paint18_linear_1100_15125" x1="54.48" y1="57.204" x2="52.4579" y2="49.6577" gradientUnits="userSpaceOnUse">
<stop stop-color="#231F20"/>
<stop offset="1" stop-color="white"/>
</linearGradient>
<linearGradient id="paint19_linear_1100_15125" x1="42.9873" y1="50.4911" x2="46.3073" y2="45.9115" gradientUnits="userSpaceOnUse">
<stop stop-color="#231F20"/>
<stop offset="1" stop-color="white"/>
</linearGradient>
<linearGradient id="paint20_linear_1100_15125" x1="31.5691" y1="48.506" x2="24.9358" y2="51.6686" gradientUnits="userSpaceOnUse">
<stop stop-color="#231F20"/>
<stop offset="1" stop-color="white"/>
</linearGradient>
<linearGradient id="paint21_linear_1100_15125" x1="29.1594" y1="37.4642" x2="31.2131" y2="41.729" gradientUnits="userSpaceOnUse">
<stop stop-color="#231F20"/>
<stop offset="1" stop-color="white"/>
</linearGradient>
<linearGradient id="paint22_linear_1100_15125" x1="38.7089" y1="24.2936" x2="37.2919" y2="19.3991" gradientUnits="userSpaceOnUse">
<stop stop-color="#231F20"/>
<stop offset="1" stop-color="white"/>
</linearGradient>
<linearGradient id="paint23_linear_1100_15125" x1="54.029" y1="46.7124" x2="58.1362" y2="47.6571" gradientUnits="userSpaceOnUse">
<stop stop-color="#231F20"/>
<stop offset="1" stop-color="white"/>
</linearGradient>
<linearGradient id="paint24_linear_1100_15125" x1="47.5874" y1="32.8367" x2="42.378" y2="31.892" gradientUnits="userSpaceOnUse">
<stop stop-color="#231F20"/>
<stop offset="1" stop-color="white"/>
</linearGradient>
<linearGradient id="paint25_linear_1100_15125" x1="88.1674" y1="62.0121" x2="244.456" y2="26.2446" gradientUnits="userSpaceOnUse">
<stop stop-color="#E6007A"/>
<stop offset="0.21" stop-color="#703AC2"/>
<stop offset="0.46" stop-color="#0070EB"/>
<stop offset="0.77" stop-color="#0297FB"/>
<stop offset="1" stop-color="#0AE2FF"/>
</linearGradient>
<linearGradient id="paint26_linear_1100_15125" x1="83.6219" y1="42.1397" x2="239.903" y2="6.37232" gradientUnits="userSpaceOnUse">
<stop stop-color="#E6007A"/>
<stop offset="0.21" stop-color="#703AC2"/>
<stop offset="0.46" stop-color="#0070EB"/>
<stop offset="0.77" stop-color="#0297FB"/>
<stop offset="1" stop-color="#0AE2FF"/>
</linearGradient>
<linearGradient id="paint27_linear_1100_15125" x1="85.3538" y1="49.7246" x2="241.642" y2="13.957" gradientUnits="userSpaceOnUse">
<stop stop-color="#E6007A"/>
<stop offset="0.21" stop-color="#703AC2"/>
<stop offset="0.46" stop-color="#0070EB"/>
<stop offset="0.77" stop-color="#0297FB"/>
<stop offset="1" stop-color="#0AE2FF"/>
</linearGradient>
<linearGradient id="paint28_linear_1100_15125" x1="84.3407" y1="45.2887" x2="240.629" y2="9.52111" gradientUnits="userSpaceOnUse">
<stop stop-color="#E6007A"/>
<stop offset="0.21" stop-color="#703AC2"/>
<stop offset="0.46" stop-color="#0070EB"/>
<stop offset="0.77" stop-color="#0297FB"/>
<stop offset="1" stop-color="#0AE2FF"/>
</linearGradient>
<linearGradient id="paint29_linear_1100_15125" x1="86.3054" y1="53.8866" x2="242.594" y2="18.1191" gradientUnits="userSpaceOnUse">
<stop stop-color="#E6007A"/>
<stop offset="0.21" stop-color="#703AC2"/>
<stop offset="0.46" stop-color="#0070EB"/>
<stop offset="0.77" stop-color="#0297FB"/>
<stop offset="1" stop-color="#0AE2FF"/>
</linearGradient>
<linearGradient id="paint30_linear_1100_15125" x1="84.6008" y1="46.425" x2="240.889" y2="10.6575" gradientUnits="userSpaceOnUse">
<stop stop-color="#E6007A"/>
<stop offset="0.21" stop-color="#703AC2"/>
<stop offset="0.46" stop-color="#0070EB"/>
<stop offset="0.77" stop-color="#0297FB"/>
<stop offset="1" stop-color="#0AE2FF"/>
</linearGradient>
<linearGradient id="paint31_linear_1100_15125" x1="88.6601" y1="64.1479" x2="244.942" y2="28.3803" gradientUnits="userSpaceOnUse">
<stop stop-color="#E6007A"/>
<stop offset="0.21" stop-color="#703AC2"/>
<stop offset="0.46" stop-color="#0070EB"/>
<stop offset="0.77" stop-color="#0297FB"/>
<stop offset="1" stop-color="#0AE2FF"/>
</linearGradient>
<linearGradient id="paint32_linear_1100_15125" x1="88.886" y1="65.161" x2="245.175" y2="29.3935" gradientUnits="userSpaceOnUse">
<stop stop-color="#E6007A"/>
<stop offset="0.21" stop-color="#703AC2"/>
<stop offset="0.46" stop-color="#0070EB"/>
<stop offset="0.77" stop-color="#0297FB"/>
<stop offset="1" stop-color="#0AE2FF"/>
</linearGradient>
<linearGradient id="paint33_linear_1100_15125" x1="89.9061" y1="69.6106" x2="246.195" y2="33.8431" gradientUnits="userSpaceOnUse">
<stop stop-color="#E6007A"/>
<stop offset="0.21" stop-color="#703AC2"/>
<stop offset="0.46" stop-color="#0070EB"/>
<stop offset="0.77" stop-color="#0297FB"/>
<stop offset="1" stop-color="#0AE2FF"/>
</linearGradient>
<linearGradient id="paint34_linear_1100_15125" x1="91.241" y1="75.443" x2="247.516" y2="39.6824" gradientUnits="userSpaceOnUse">
<stop stop-color="#E6007A"/>
<stop offset="0.21" stop-color="#703AC2"/>
<stop offset="0.46" stop-color="#0070EB"/>
<stop offset="0.77" stop-color="#0297FB"/>
<stop offset="1" stop-color="#0AE2FF"/>
</linearGradient>
<linearGradient id="paint35_linear_1100_15125" x1="90.4882" y1="72.1571" x2="246.777" y2="36.3897" gradientUnits="userSpaceOnUse">
<stop stop-color="#E6007A"/>
<stop offset="0.21" stop-color="#703AC2"/>
<stop offset="0.46" stop-color="#0070EB"/>
<stop offset="0.77" stop-color="#0297FB"/>
<stop offset="1" stop-color="#0AE2FF"/>
</linearGradient>
</defs>
</svg>
